<svg xmlns="http://www.w3.org/2000/svg" xmlns:v="https://svgstorm.com"
viewBox = "0 0 640 640"
width="640"
height="640">
<g fill="None" fill-opacity="0.0" stroke="#0F1314" stroke-opacity="1.00" stroke-width="0.3"><path d="
M 0.00 640.00 
L 640.00 640.00
L 640.00 0.00
L 0.00 0.00
L 0.00 640.00
M 417.00 201.00 
C 420.83 197.51 426.45 203.21 423.00 207.00
C 431.52 224.43 446.82 240.62 446.33 262.67 C 450.45 284.82 452.31 313.71 440.00 333.00
C 439.43 333.94 438.85 334.82 439.00 336.00
C 438.96 336.50 439.02 337.50 439.00 338.00
C 436.46 353.86 424.36 363.79 416.00 377.00
C 426.50 377.67 438.32 375.67 448.00 378.00
C 449.66 389.59 449.67 404.48 448.00 416.00
C 333.17 415.33 217.01 417.33 103.00 415.00
C 103.00 402.67 103.00 390.33 103.00 378.00
C 142.76 375.67 184.48 377.67 225.00 377.00
C 200.69 348.83 185.41 309.69 192.92 269.92 C 192.74 242.96 209.64 223.94 220.25 202.25 C 228.77 198.56 235.87 185.95 245.70 181.70 C 256.46 175.78 265.48 166.62 278.00 167.00
C 278.48 167.09 279.50 167.00 280.00 167.00
C 281.05 165.57 283.10 164.77 285.00 165.00
C 331.13 148.76 386.00 164.74 417.00 201.00
M 445.00 224.00 
C 446.73 232.00 437.85 223.64 445.00 224.00
M 535.00 478.00 
C 421.33 478.00 307.67 478.00 194.00 478.00
C 193.50 478.00 193.00 478.00 193.00 478.00
C 191.34 466.41 191.33 451.52 193.00 440.00
C 193.26 439.75 194.00 440.00 194.00 440.00
C 307.67 440.00 421.33 440.00 535.00 440.00
C 536.66 451.59 536.67 466.48 535.00 478.00 Z"/>
</g>
<g fill="None" fill-opacity="0.0" stroke="#251904" stroke-opacity="1.00" stroke-width="0.3"><path d="
M 285.00 165.00 
C 292.03 163.84 298.74 161.39 306.00 161.00
C 307.14 159.13 310.13 160.39 312.00 160.00
C 317.33 160.00 322.67 160.00 328.00 160.00
C 329.88 160.47 332.93 158.94 334.00 161.00
C 340.00 162.00 345.97 163.02 352.00 164.00
C 353.60 164.56 356.03 164.50 357.00 166.00
C 362.79 166.14 367.38 170.33 373.00 171.00
C 374.92 172.44 378.04 172.50 379.00 175.00
C 382.46 175.14 384.75 178.46 388.00 179.00
C 399.82 185.54 409.86 195.72 419.00 206.00
C 419.13 206.80 420.09 207.11 420.00 208.00
C 420.54 209.66 422.56 210.33 423.00 212.00
C 425.17 212.93 426.11 215.05 427.00 217.00
C 430.12 223.31 434.22 229.39 437.00 236.00
C 438.84 236.49 439.18 238.35 439.00 240.00
C 441.61 248.91 445.12 257.58 446.00 267.00
C 447.75 267.83 446.66 270.44 447.00 272.00
C 449.03 273.77 447.53 277.48 448.00 280.00
C 448.00 285.33 448.00 290.67 448.00 296.00
C 447.53 297.88 449.06 300.93 447.00 302.00
C 447.00 302.50 446.97 303.50 447.00 304.00
C 446.61 305.57 447.94 308.22 446.00 309.00
C 446.31 312.92 444.05 316.14 444.00 320.00
C 443.29 322.62 443.87 326.64 441.00 328.00
C 441.62 329.94 439.80 331.13 440.00 333.00
C 452.31 313.71 450.45 284.82 446.33 262.67 C 446.82 240.62 431.52 224.43 423.00 207.00
C 420.72 205.43 418.43 203.33 417.00 201.00
C 386.00 164.74 331.13 148.76 285.00 165.00 Z"/>
</g>
<g fill="None" fill-opacity="0.0" stroke="#533F0C" stroke-opacity="1.00" stroke-width="0.3"><path d="
M 306.00 161.00 
C 308.00 161.00 310.00 161.00 312.00 161.00
C 312.10 160.98 312.00 160.00 312.00 160.00
C 310.13 160.39 307.14 159.13 306.00 161.00 Z"/>
</g>
<g fill="None" fill-opacity="0.0" stroke="#8D6F2B" stroke-opacity="1.00" stroke-width="0.3"><path d="
M 312.00 161.00 
C 317.33 161.00 322.67 161.00 328.00 161.00
C 327.90 160.98 328.00 160.00 328.00 160.00
C 322.67 160.00 317.33 160.00 312.00 160.00
C 312.00 160.00 312.10 160.98 312.00 161.00 Z"/>
</g>
<g fill="None" fill-opacity="0.0" stroke="#5D4409" stroke-opacity="1.00" stroke-width="0.3"><path d="
M 328.00 161.00 
C 330.00 161.00 332.00 161.00 334.00 161.00
C 332.93 158.94 329.88 160.47 328.00 160.00
C 328.00 160.00 327.90 160.98 328.00 161.00 Z"/>
</g>
<g fill="None" fill-opacity="0.0" stroke="#EEB945" stroke-opacity="1.00" stroke-width="0.3"><path d="
M 285.00 165.00 
C 283.95 166.43 281.90 167.23 280.00 167.00
C 279.50 167.00 278.48 167.09 278.00 167.00
C 269.78 171.78 259.98 174.20 252.00 180.00
C 244.23 186.73 234.46 192.22 228.00 201.00
C 224.64 204.68 221.55 208.81 218.00 212.00
C 216.45 213.55 216.17 216.17 214.00 217.00
C 203.30 234.43 195.18 254.04 194.00 275.00
C 194.00 283.67 194.00 292.33 194.00 301.00
C 194.32 316.70 200.57 330.77 206.00 345.00
C 209.94 347.94 210.95 353.25 214.00 357.00
C 214.31 359.73 216.84 361.59 218.00 364.00
C 222.90 367.49 225.91 372.76 230.00 377.00
C 252.00 377.00 274.00 377.00 296.00 377.00
C 296.00 376.00 296.00 375.00 296.00 374.00
C 289.57 372.96 284.13 368.93 278.00 367.00
C 274.69 364.66 270.18 363.64 268.00 360.00
C 265.09 359.25 263.49 356.39 261.00 355.00
C 255.91 351.07 251.55 346.13 248.00 341.00
C 247.76 340.68 248.00 340.00 248.00 340.00
C 245.83 339.07 244.89 336.95 244.00 335.00
C 238.37 324.69 233.52 313.77 232.00 302.00
C 230.13 300.86 231.39 297.87 231.00 296.00
C 229.39 291.74 229.30 284.19 231.00 280.00
C 231.47 278.12 229.94 275.07 232.00 274.00
C 233.35 261.44 239.12 249.82 245.00 239.00
C 245.97 237.15 246.79 234.76 249.00 234.00
C 253.77 227.08 260.11 220.72 267.00 216.00
C 267.32 215.76 268.00 216.00 268.00 216.00
C 270.28 212.41 274.45 210.93 278.00 209.00
C 281.06 207.73 283.71 205.55 287.00 205.00
C 288.11 203.80 290.29 203.34 292.00 203.00
C 295.82 201.39 299.76 200.13 304.00 200.00
C 305.45 198.04 308.80 199.44 311.00 199.00
C 311.50 199.05 312.00 199.00 312.00 199.00
C 319.12 197.00 329.21 197.58 336.00 200.00
C 340.07 199.17 343.11 202.04 347.00 202.00
C 348.81 201.86 351.08 202.44 352.00 204.00
C 353.41 204.15 355.34 204.66 356.00 206.00
C 356.50 205.97 357.00 206.00 357.00 206.00
C 359.55 207.83 363.43 208.07 365.00 211.00
C 365.48 211.10 366.00 211.00 366.00 211.00
C 370.18 212.53 373.24 215.78 377.00 218.00
C 384.22 224.17 391.14 231.11 396.00 239.00
C 402.00 250.27 407.66 262.06 409.00 275.00
C 410.75 275.83 409.66 278.44 410.00 280.00
C 410.00 285.33 410.00 290.67 410.00 296.00
C 410.11 299.44 409.85 303.44 408.00 306.00
C 406.13 319.15 399.50 331.07 392.00 342.00
C 391.19 344.04 388.73 344.97 388.00 347.00
C 384.81 350.98 380.97 354.89 377.00 358.00
C 374.95 359.35 373.04 360.70 371.00 362.00
C 369.54 362.55 368.82 364.40 367.00 364.00
C 365.33 366.86 361.61 367.25 359.00 369.00
C 353.63 370.93 348.28 372.54 343.00 375.00
C 352.14 379.59 365.31 375.72 376.00 377.00 C 387.67 377.00 399.33 377.00 411.00 377.00
C 413.21 374.04 416.02 371.10 419.00 369.00
C 424.29 361.85 428.95 353.95 434.00 347.00
C 433.47 345.72 434.97 345.14 435.00 344.00
C 435.68 341.20 437.07 338.02 439.00 336.00
C 438.85 334.82 439.43 333.94 440.00 333.00
C 439.80 331.13 441.62 329.94 441.00 328.00
C 441.86 325.38 442.23 322.00 444.00 320.00
C 444.05 316.14 446.31 312.92 446.00 309.00
C 446.39 307.43 445.06 304.78 447.00 304.00
C 446.97 303.50 447.00 302.50 447.00 302.00
C 447.00 300.00 447.00 298.00 447.00 296.00
C 447.00 290.67 447.00 285.33 447.00 280.00
C 447.00 277.33 447.00 274.67 447.00 272.00
C 445.25 271.17 446.34 268.56 446.00 267.00
C 445.12 257.58 441.61 248.91 439.00 240.00
C 437.89 239.16 436.97 237.54 437.00 236.00
C 434.22 229.39 430.12 223.31 427.00 217.00
C 424.83 216.07 423.89 213.95 423.00 212.00
C 422.56 210.33 420.54 209.66 420.00 208.00
C 413.34 202.16 406.78 195.63 401.00 189.00
C 396.49 185.98 391.56 183.02 388.00 179.00
C 384.75 178.46 382.46 175.14 379.00 175.00
C 377.08 173.56 373.96 173.50 373.00 171.00
C 367.38 170.33 362.79 166.14 357.00 166.00
C 355.19 166.14 352.92 165.56 352.00 164.00
C 345.97 163.02 340.00 162.00 334.00 161.00
C 332.00 161.00 330.00 161.00 328.00 161.00
C 322.67 161.00 317.33 161.00 312.00 161.00
C 310.00 161.00 308.00 161.00 306.00 161.00
C 298.74 161.39 292.03 163.84 285.00 165.00 Z"/>
</g>
<g fill="None" fill-opacity="0.0" stroke="#8F722F" stroke-opacity="1.00" stroke-width="0.3"><path d="
M 357.00 166.00 
C 356.03 164.50 353.60 164.56 352.00 164.00
C 352.92 165.56 355.19 166.14 357.00 166.00 Z"/>
</g>
<g fill="None" fill-opacity="0.0" stroke="#7D672A" stroke-opacity="1.00" stroke-width="0.3"><path d="
M 280.00 167.00 
C 281.90 167.23 283.95 166.43 285.00 165.00
C 283.10 164.77 281.05 165.57 280.00 167.00 Z"/>
</g>
<g fill="None" fill-opacity="0.0" stroke="#271A06" stroke-opacity="1.00" stroke-width="0.3"><path d="
M 225.00 377.00 
C 226.00 377.00 227.00 377.00 228.00 377.00
C 226.89 374.59 224.04 373.38 223.00 371.00
C 221.53 368.50 219.66 366.34 218.00 364.00
C 216.84 361.59 214.31 359.73 214.00 357.00
C 209.83 354.20 208.32 349.18 206.00 345.00
C 200.57 330.77 194.32 316.70 194.00 301.00
C 192.35 293.41 192.32 282.52 194.00 275.00
C 195.18 254.04 203.30 234.43 214.00 217.00
C 214.97 215.15 215.79 212.76 218.00 212.00
C 219.57 209.02 222.06 206.70 224.00 204.00
C 232.19 194.62 241.37 185.61 252.00 180.00
C 259.98 174.20 269.78 171.78 278.00 167.00
C 265.48 166.62 256.46 175.78 245.70 181.70 C 235.87 185.95 228.77 198.56 220.25 202.25 C 209.64 223.94 192.74 242.96 192.92 269.92 C 185.41 309.69 200.69 348.83 225.00 377.00 Z"/>
</g>
<g fill="None" fill-opacity="0.0" stroke="#77622D" stroke-opacity="1.00" stroke-width="0.3"><path d="
M 379.00 175.00 
C 378.04 172.50 374.92 172.44 373.00 171.00
C 373.96 173.50 377.08 173.56 379.00 175.00 Z"/>
</g>
<g fill="None" fill-opacity="0.0" stroke="#5F491A" stroke-opacity="1.00" stroke-width="0.3"><path d="
M 401.00 189.00 
C 407.49 194.02 412.56 201.03 419.00 206.00
C 409.86 195.72 399.82 185.54 388.00 179.00
C 391.56 183.02 396.49 185.98 401.00 189.00 Z"/>
</g>
<g fill="None" fill-opacity="0.0" stroke="#725A2A" stroke-opacity="1.00" stroke-width="0.3"><path d="
M 224.00 204.00 
C 225.66 203.46 226.33 201.44 228.00 201.00
C 234.46 192.22 244.23 186.73 252.00 180.00
C 241.37 185.61 232.19 194.62 224.00 204.00 Z"/>
</g>
<g fill="None" fill-opacity="0.0" stroke="#AC934E" stroke-opacity="1.00" stroke-width="0.3"><path d="
M 420.00 208.00 
C 420.09 207.11 419.13 206.80 419.00 206.00
C 412.56 201.03 407.49 194.02 401.00 189.00
C 406.78 195.63 413.34 202.16 420.00 208.00 Z"/>
</g>
<g fill="None" fill-opacity="0.0" stroke="#6A5322" stroke-opacity="1.00" stroke-width="0.3"><path d="
M 312.00 199.00 
C 320.22 198.51 328.02 199.52 336.00 200.00
C 329.21 197.58 319.12 197.00 312.00 199.00 Z"/>
</g>
<g fill="None" fill-opacity="0.0" stroke="#5C4419" stroke-opacity="1.00" stroke-width="0.3"><path d="
M 304.00 200.00 
C 306.19 199.48 309.62 201.14 311.00 199.00
C 308.80 199.44 305.45 198.04 304.00 200.00 Z"/>
</g>
<g fill="None" fill-opacity="0.0" stroke="#251A04" stroke-opacity="1.00" stroke-width="0.3"><path d="
M 304.00 200.00 
C 299.76 200.13 295.82 201.39 292.00 203.00
C 290.95 204.43 288.90 205.23 287.00 205.00
C 283.71 205.55 281.06 207.73 278.00 209.00
C 275.40 212.05 271.49 213.99 268.00 216.00
C 268.00 216.00 267.32 215.76 267.00 216.00
C 266.46 217.66 264.44 218.33 264.00 220.00
C 288.88 200.66 324.48 195.53 356.00 206.00
C 355.34 204.66 353.41 204.15 352.00 204.00
C 350.40 203.44 347.97 203.50 347.00 202.00
C 343.11 202.04 340.07 199.17 336.00 200.00
C 328.02 199.52 320.22 198.51 312.00 199.00
C 312.00 199.00 311.50 199.05 311.00 199.00
C 309.62 201.14 306.19 199.48 304.00 200.00 Z"/>
</g>
<g fill="None" fill-opacity="0.0" stroke="#0E1313" stroke-opacity="1.00" stroke-width="0.3"><path d="
M 264.00 220.00 
C 263.20 220.13 262.89 221.09 262.00 221.00
C 248.87 235.66 238.46 252.42 234.67 271.67 C 229.17 293.74 237.50 316.81 245.00 335.00
C 245.68 336.88 247.02 338.32 248.00 340.00
C 248.00 340.00 247.76 340.68 248.00 341.00
C 249.57 341.96 251.25 343.32 252.00 345.00
C 257.52 349.75 262.84 355.28 268.00 360.00
C 271.75 360.98 274.22 364.78 278.00 366.00
C 288.28 371.44 301.35 371.17 310.00 376.00
C 310.74 375.82 311.91 376.05 312.00 377.00
C 316.33 377.00 320.67 377.00 325.00 377.00
C 344.82 372.52 366.23 365.44 382.00 351.00
C 382.35 350.87 382.85 350.34 383.00 350.00
C 397.62 331.63 409.31 310.43 408.00 285.00 C 407.95 260.12 395.08 240.41 380.00 222.00
C 375.60 217.86 370.07 215.09 366.00 211.00
C 366.00 211.00 365.48 211.10 365.00 211.00
C 362.26 209.89 358.76 208.53 357.00 206.00
C 357.00 206.00 356.50 205.97 356.00 206.00
C 324.48 195.53 288.88 200.66 264.00 220.00 Z"/>
</g>
<g fill="None" fill-opacity="0.0" stroke="#120F1E" stroke-opacity="1.00" stroke-width="0.3"><path d="
M 417.00 201.00 
C 418.43 203.33 420.72 205.43 423.00 207.00
C 426.45 203.21 420.83 197.51 417.00 201.00 Z"/>
</g>
<g fill="None" fill-opacity="0.0" stroke="#AA8F52" stroke-opacity="1.00" stroke-width="0.3"><path d="
M 224.00 204.00 
C 222.06 206.70 219.57 209.02 218.00 212.00
C 221.55 208.81 224.64 204.68 228.00 201.00
C 226.33 201.44 225.66 203.46 224.00 204.00 Z"/>
</g>
<g fill="None" fill-opacity="0.0" stroke="#A6834B" stroke-opacity="1.00" stroke-width="0.3"><path d="
M 352.00 204.00 
C 351.08 202.44 348.81 201.86 347.00 202.00
C 347.97 203.50 350.40 203.44 352.00 204.00 Z"/>
</g>
<g fill="None" fill-opacity="0.0" stroke="#56410F" stroke-opacity="1.00" stroke-width="0.3"><path d="
M 287.00 205.00 
C 288.90 205.23 290.95 204.43 292.00 203.00
C 290.29 203.34 288.11 203.80 287.00 205.00 Z"/>
</g>
<g fill="None" fill-opacity="0.0" stroke="#4A370C" stroke-opacity="1.00" stroke-width="0.3"><path d="
M 365.00 211.00 
C 363.43 208.07 359.55 207.83 357.00 206.00
C 358.76 208.53 362.26 209.89 365.00 211.00 Z"/>
</g>
<g fill="None" fill-opacity="0.0" stroke="#5B4214" stroke-opacity="1.00" stroke-width="0.3"><path d="
M 268.00 216.00 
C 271.49 213.99 275.40 212.05 278.00 209.00
C 274.45 210.93 270.28 212.41 268.00 216.00 Z"/>
</g>
<g fill="None" fill-opacity="0.0" stroke="#513C13" stroke-opacity="1.00" stroke-width="0.3"><path d="
M 380.00 222.00 
C 379.46 220.34 377.44 219.67 377.00 218.00
C 373.24 215.78 370.18 212.53 366.00 211.00
C 370.07 215.09 375.60 217.86 380.00 222.00 Z"/>
</g>
<g fill="None" fill-opacity="0.0" stroke="#634F1C" stroke-opacity="1.00" stroke-width="0.3"><path d="
M 214.00 217.00 
C 216.17 216.17 216.45 213.55 218.00 212.00
C 215.79 212.76 214.97 215.15 214.00 217.00 Z"/>
</g>
<g fill="None" fill-opacity="0.0" stroke="#63471E" stroke-opacity="1.00" stroke-width="0.3"><path d="
M 427.00 217.00 
C 426.11 215.05 425.17 212.93 423.00 212.00
C 423.89 213.95 424.83 216.07 427.00 217.00 Z"/>
</g>
<g fill="None" fill-opacity="0.0" stroke="#624C19" stroke-opacity="1.00" stroke-width="0.3"><path d="
M 249.00 234.00 
C 253.78 230.31 256.70 224.30 262.00 221.00
C 262.89 221.09 263.20 220.13 264.00 220.00
C 264.44 218.33 266.46 217.66 267.00 216.00
C 260.11 220.72 253.77 227.08 249.00 234.00 Z"/>
</g>
<g fill="None" fill-opacity="0.0" stroke="#81662F" stroke-opacity="1.00" stroke-width="0.3"><path d="
M 380.00 222.00 
C 386.86 226.37 390.01 234.14 396.00 239.00
C 391.14 231.11 384.22 224.17 377.00 218.00
C 377.44 219.67 379.46 220.34 380.00 222.00 Z"/>
</g>
<g fill="None" fill-opacity="0.0" stroke="#291C05" stroke-opacity="1.00" stroke-width="0.3"><path d="
M 249.00 234.00 
C 247.45 235.55 247.17 238.18 245.00 239.00
C 239.12 249.82 233.35 261.44 232.00 274.00
C 231.41 276.84 233.22 280.98 231.00 283.00
C 231.00 286.33 231.00 289.67 231.00 293.00
C 233.08 295.10 231.50 299.15 232.00 302.00
C 233.52 313.77 238.37 324.69 244.00 335.00
C 244.22 335.25 245.00 335.00 245.00 335.00
C 237.50 316.81 229.17 293.74 234.67 271.67 C 238.46 252.42 248.87 235.66 262.00 221.00
C 256.70 224.30 253.78 230.31 249.00 234.00 Z"/>
</g>
<g fill="None" fill-opacity="0.0" stroke="#281B06" stroke-opacity="1.00" stroke-width="0.3"><path d="
M 383.00 350.00 
C 386.45 347.95 388.58 344.00 392.00 342.00
C 399.50 331.07 406.13 319.15 408.00 306.00
C 407.79 302.54 409.70 299.60 409.00 296.00
C 409.00 290.67 409.00 285.33 409.00 280.00
C 409.00 278.33 409.00 276.67 409.00 275.00
C 407.66 262.06 402.00 250.27 396.00 239.00
C 390.01 234.14 386.86 226.37 380.00 222.00
C 395.08 240.41 407.95 260.12 408.00 285.00 C 409.31 310.43 397.62 331.63 383.00 350.00 Z"/>
</g>
<g fill="None" fill-opacity="0.0" stroke="#110F23" stroke-opacity="1.00" stroke-width="0.3"><path d="
M 445.00 224.00 
C 437.85 223.64 446.73 232.00 445.00 224.00 Z"/>
</g>
<g fill="None" fill-opacity="0.0" stroke="#957B40" stroke-opacity="1.00" stroke-width="0.3"><path d="
M 245.00 239.00 
C 247.17 238.18 247.45 235.55 249.00 234.00
C 246.79 234.76 245.97 237.15 245.00 239.00 Z"/>
</g>
<g fill="None" fill-opacity="0.0" stroke="#584511" stroke-opacity="1.00" stroke-width="0.3"><path d="
M 439.00 240.00 
C 439.18 238.35 438.84 236.49 437.00 236.00
C 436.97 237.54 437.89 239.16 439.00 240.00 Z"/>
</g>
<g fill="None" fill-opacity="0.0" stroke="#9B7D4E" stroke-opacity="1.00" stroke-width="0.3"><path d="
M 447.00 272.00 
C 446.66 270.44 447.75 267.83 446.00 267.00
C 446.34 268.56 445.25 271.17 447.00 272.00 Z"/>
</g>
<g fill="None" fill-opacity="0.0" stroke="#725513" stroke-opacity="1.00" stroke-width="0.3"><path d="
M 447.00 280.00 
C 447.00 279.96 448.00 280.00 448.00 280.00
C 447.53 277.48 449.03 273.77 447.00 272.00
C 447.00 274.67 447.00 277.33 447.00 280.00 Z"/>
</g>
<g fill="None" fill-opacity="0.0" stroke="#6E571B" stroke-opacity="1.00" stroke-width="0.3"><path d="
M 231.00 280.00 
C 231.00 281.00 231.00 282.00 231.00 283.00
C 233.22 280.98 231.41 276.84 232.00 274.00
C 229.94 275.07 231.47 278.12 231.00 280.00 Z"/>
</g>
<g fill="None" fill-opacity="0.0" stroke="#A8874A" stroke-opacity="1.00" stroke-width="0.3"><path d="
M 194.00 301.00 
C 194.00 292.33 194.00 283.67 194.00 275.00
C 192.32 282.52 192.35 293.41 194.00 301.00 Z"/>
</g>
<g fill="None" fill-opacity="0.0" stroke="#917239" stroke-opacity="1.00" stroke-width="0.3"><path d="
M 409.00 280.00 
C 409.05 280.15 410.00 280.00 410.00 280.00
C 409.66 278.44 410.75 275.83 409.00 275.00
C 409.00 276.67 409.00 278.33 409.00 280.00 Z"/>
</g>
<g fill="None" fill-opacity="0.0" stroke="#B79843" stroke-opacity="1.00" stroke-width="0.3"><path d="
M 231.00 296.00 
C 231.00 295.00 231.00 294.00 231.00 293.00
C 231.00 289.67 231.00 286.33 231.00 283.00
C 231.00 282.00 231.00 281.00 231.00 280.00
C 229.30 284.19 229.39 291.74 231.00 296.00 Z"/>
</g>
<g fill="None" fill-opacity="0.0" stroke="#584113" stroke-opacity="1.00" stroke-width="0.3"><path d="
M 409.00 296.00 
C 409.00 296.02 410.00 296.00 410.00 296.00
C 410.00 290.67 410.00 285.33 410.00 280.00
C 410.00 280.00 409.05 280.15 409.00 280.00
C 409.00 285.33 409.00 290.67 409.00 296.00 Z"/>
</g>
<g fill="None" fill-opacity="0.0" stroke="#A68837" stroke-opacity="1.00" stroke-width="0.3"><path d="
M 447.00 296.00 
C 447.02 295.90 448.00 296.00 448.00 296.00
C 448.00 290.67 448.00 285.33 448.00 280.00
C 448.00 280.00 447.00 279.96 447.00 280.00
C 447.00 285.33 447.00 290.67 447.00 296.00 Z"/>
</g>
<g fill="None" fill-opacity="0.0" stroke="#795C1B" stroke-opacity="1.00" stroke-width="0.3"><path d="
M 231.00 296.00 
C 231.39 297.87 230.13 300.86 232.00 302.00
C 231.50 299.15 233.08 295.10 231.00 293.00
C 231.00 294.00 231.00 295.00 231.00 296.00 Z"/>
</g>
<g fill="None" fill-opacity="0.0" stroke="#8D6F36" stroke-opacity="1.00" stroke-width="0.3"><path d="
M 408.00 306.00 
C 409.85 303.44 410.11 299.44 410.00 296.00
C 410.00 296.00 409.00 296.02 409.00 296.00
C 409.70 299.60 407.79 302.54 408.00 306.00 Z"/>
</g>
<g fill="None" fill-opacity="0.0" stroke="#805D1C" stroke-opacity="1.00" stroke-width="0.3"><path d="
M 447.00 302.00 
C 449.06 300.93 447.53 297.88 448.00 296.00
C 448.00 296.00 447.02 295.90 447.00 296.00
C 447.00 298.00 447.00 300.00 447.00 302.00 Z"/>
</g>
<g fill="None" fill-opacity="0.0" stroke="#9B7844" stroke-opacity="1.00" stroke-width="0.3"><path d="
M 446.00 309.00 
C 447.94 308.22 446.61 305.57 447.00 304.00
C 445.06 304.78 446.39 307.43 446.00 309.00 Z"/>
</g>
<g fill="None" fill-opacity="0.0" stroke="#826A2A" stroke-opacity="1.00" stroke-width="0.3"><path d="
M 441.00 328.00 
C 443.87 326.64 443.29 322.62 444.00 320.00
C 442.23 322.00 441.86 325.38 441.00 328.00 Z"/>
</g>
<g fill="None" fill-opacity="0.0" stroke="#876B3A" stroke-opacity="1.00" stroke-width="0.3"><path d="
M 248.00 340.00 
C 247.02 338.32 245.68 336.88 245.00 335.00
C 245.00 335.00 244.22 335.25 244.00 335.00
C 244.89 336.95 245.83 339.07 248.00 340.00 Z"/>
</g>
<g fill="None" fill-opacity="0.0" stroke="#63531D" stroke-opacity="1.00" stroke-width="0.3"><path d="
M 435.00 344.00 
C 437.02 342.66 436.95 339.28 439.00 338.00
C 439.02 337.50 438.96 336.50 439.00 336.00
C 437.07 338.02 435.68 341.20 435.00 344.00 Z"/>
</g>
<g fill="None" fill-opacity="0.0" stroke="#1B1003" stroke-opacity="1.00" stroke-width="0.3"><path d="
M 435.00 344.00 
C 434.97 345.14 433.47 345.72 434.00 347.00
C 428.86 358.13 421.37 367.84 413.00 377.00
C 414.00 377.00 415.00 377.00 416.00 377.00
C 424.36 363.79 436.46 353.86 439.00 338.00
C 436.95 339.28 437.02 342.66 435.00 344.00 Z"/>
</g>
<g fill="None" fill-opacity="0.0" stroke="#826A2D" stroke-opacity="1.00" stroke-width="0.3"><path d="
M 261.00 355.00 
C 258.62 351.20 254.32 348.76 252.00 345.00
C 251.25 343.32 249.57 341.96 248.00 341.00
C 251.55 346.13 255.91 351.07 261.00 355.00 Z"/>
</g>
<g fill="None" fill-opacity="0.0" stroke="#594111" stroke-opacity="1.00" stroke-width="0.3"><path d="
M 383.00 350.00 
C 382.85 350.34 382.35 350.87 382.00 351.00
C 379.36 355.78 373.84 357.65 371.00 362.00
C 373.04 360.70 374.95 359.35 377.00 358.00
C 380.19 354.02 384.03 350.11 388.00 347.00
C 388.73 344.97 391.19 344.04 392.00 342.00
C 388.58 344.00 386.45 347.95 383.00 350.00 Z"/>
</g>
<g fill="None" fill-opacity="0.0" stroke="#937A39" stroke-opacity="1.00" stroke-width="0.3"><path d="
M 214.00 357.00 
C 210.95 353.25 209.94 347.94 206.00 345.00
C 208.32 349.18 209.83 354.20 214.00 357.00 Z"/>
</g>
<g fill="None" fill-opacity="0.0" stroke="#402E06" stroke-opacity="1.00" stroke-width="0.3"><path d="
M 261.00 355.00 
C 263.49 356.39 265.09 359.25 268.00 360.00
C 262.84 355.28 257.52 349.75 252.00 345.00
C 254.32 348.76 258.62 351.20 261.00 355.00 Z"/>
</g>
<g fill="None" fill-opacity="0.0" stroke="#977B35" stroke-opacity="1.00" stroke-width="0.3"><path d="
M 377.00 358.00 
C 380.97 354.89 384.81 350.98 388.00 347.00
C 384.03 350.11 380.19 354.02 377.00 358.00 Z"/>
</g>
<g fill="None" fill-opacity="0.0" stroke="#5A4214" stroke-opacity="1.00" stroke-width="0.3"><path d="
M 419.00 369.00 
C 417.27 372.11 413.67 373.92 412.00 377.00
C 412.25 376.75 413.00 377.00 413.00 377.00
C 421.37 367.84 428.86 358.13 434.00 347.00
C 428.95 353.95 424.29 361.85 419.00 369.00 Z"/>
</g>
<g fill="None" fill-opacity="0.0" stroke="#221905" stroke-opacity="1.00" stroke-width="0.3"><path d="
M 325.00 377.00 
C 326.00 377.00 327.00 377.00 328.00 377.00
C 329.77 374.97 333.48 376.47 336.00 376.00
C 338.49 376.29 340.39 374.36 343.00 375.00
C 348.28 372.54 353.63 370.93 359.00 369.00
C 360.45 365.62 364.19 365.40 367.00 364.00
C 368.82 364.40 369.54 362.55 371.00 362.00
C 373.84 357.65 379.36 355.78 382.00 351.00
C 366.23 365.44 344.82 372.52 325.00 377.00 Z"/>
</g>
<g fill="None" fill-opacity="0.0" stroke="#655320" stroke-opacity="1.00" stroke-width="0.3"><path d="
M 278.00 367.00 
C 277.84 366.94 278.00 366.00 278.00 366.00
C 274.22 364.78 271.75 360.98 268.00 360.00
C 270.18 363.64 274.69 364.66 278.00 367.00 Z"/>
</g>
<g fill="None" fill-opacity="0.0" stroke="#AB8E56" stroke-opacity="1.00" stroke-width="0.3"><path d="
M 223.00 371.00 
C 224.61 372.46 229.32 375.24 228.00 377.00
C 227.77 377.36 228.00 378.00 228.00 378.00
C 228.25 378.25 229.00 378.00 229.00 378.00
C 229.26 377.88 229.65 377.05 230.00 377.00
C 225.91 372.76 222.90 367.49 218.00 364.00
C 219.66 366.34 221.53 368.50 223.00 371.00 Z"/>
</g>
<g fill="None" fill-opacity="0.0" stroke="#674E22" stroke-opacity="1.00" stroke-width="0.3"><path d="
M 359.00 369.00 
C 361.61 367.25 365.33 366.86 367.00 364.00
C 364.19 365.40 360.45 365.62 359.00 369.00 Z"/>
</g>
<g fill="None" fill-opacity="0.0" stroke="#291D05" stroke-opacity="1.00" stroke-width="0.3"><path d="
M 278.00 367.00 
C 284.13 368.93 289.57 372.96 296.00 374.00
C 299.33 374.60 302.31 376.63 306.00 376.00
C 307.33 376.00 308.67 376.00 310.00 376.00
C 301.35 371.17 288.28 371.44 278.00 366.00
C 278.00 366.00 277.84 366.94 278.00 367.00 Z"/>
</g>
<g fill="None" fill-opacity="0.0" stroke="#9D843B" stroke-opacity="1.00" stroke-width="0.3"><path d="
M 411.00 377.00 
C 411.50 377.00 412.00 377.00 412.00 377.00
C 413.67 373.92 417.27 372.11 419.00 369.00
C 416.02 371.10 413.21 374.04 411.00 377.00 Z"/>
</g>
<g fill="None" fill-opacity="0.0" stroke="#573F0E" stroke-opacity="1.00" stroke-width="0.3"><path d="
M 228.00 377.00 
C 229.32 375.24 224.61 372.46 223.00 371.00
C 224.04 373.38 226.89 374.59 228.00 377.00 Z"/>
</g>
<g fill="None" fill-opacity="0.0" stroke="#E8CD91" stroke-opacity="1.00" stroke-width="0.3"><path d="
M 230.00 377.00 
C 229.65 377.05 229.26 377.88 229.00 378.00
C 254.59 377.35 280.83 379.31 306.00 377.00
C 306.21 376.89 306.00 376.00 306.00 376.00
C 302.31 376.63 299.33 374.60 296.00 374.00
C 296.00 375.00 296.00 376.00 296.00 377.00
C 274.00 377.00 252.00 377.00 230.00 377.00 Z"/>
</g>
<g fill="None" fill-opacity="0.0" stroke="#EBCE92" stroke-opacity="1.00" stroke-width="0.3"><path d="
M 336.00 376.00 
C 335.87 376.04 336.00 377.00 336.00 377.00
C 360.52 379.23 386.07 377.41 411.00 378.00
C 411.50 378.00 412.00 378.00 412.00 378.00
C 412.25 377.75 412.00 377.00 412.00 377.00
C 412.00 377.00 411.50 377.00 411.00 377.00
C 399.33 377.00 387.67 377.00 376.00 377.00 C 365.31 375.72 352.14 379.59 343.00 375.00
C 340.39 374.36 338.49 376.29 336.00 376.00 Z"/>
</g>
<g fill="None" fill-opacity="0.0" stroke="#564D3A" stroke-opacity="1.00" stroke-width="0.3"><path d="
M 306.00 377.00 
C 308.00 377.00 310.00 377.00 312.00 377.00
C 311.91 376.05 310.74 375.82 310.00 376.00
C 308.67 376.00 307.33 376.00 306.00 376.00
C 306.00 376.00 306.21 376.89 306.00 377.00 Z"/>
</g>
<g fill="None" fill-opacity="0.0" stroke="#595241" stroke-opacity="1.00" stroke-width="0.3"><path d="
M 328.00 377.00 
C 330.67 377.00 333.33 377.00 336.00 377.00
C 336.00 377.00 335.87 376.04 336.00 376.00
C 333.48 376.47 329.77 374.97 328.00 377.00 Z"/>
</g>
<g fill="None" fill-opacity="0.0" stroke="#888986" stroke-opacity="1.00" stroke-width="0.3"><path d="
M 103.00 378.00 
C 144.67 378.00 186.33 378.00 228.00 378.00
C 228.00 378.00 227.77 377.36 228.00 377.00
C 227.00 377.00 226.00 377.00 225.00 377.00
C 184.48 377.67 142.76 375.67 103.00 378.00 Z"/>
</g>
<g fill="None" fill-opacity="0.0" stroke="#F3E8CB" stroke-opacity="1.00" stroke-width="0.3"><path d="
M 229.00 378.00 
C 229.00 378.00 228.25 378.25 228.00 378.00
C 235.70 383.01 246.70 376.99 256.00 379.00 C 266.46 378.64 275.84 380.31 286.00 379.00 C 294.21 380.11 306.49 382.04 313.00 378.00
C 312.65 377.95 312.25 377.09 312.00 377.00
C 310.00 377.00 308.00 377.00 306.00 377.00
C 280.83 379.31 254.59 377.35 229.00 378.00 Z"/>
</g>
<g fill="None" fill-opacity="0.0" stroke="#929389" stroke-opacity="1.00" stroke-width="0.3"><path d="
M 313.00 378.00 
C 318.00 378.00 323.00 378.00 328.00 378.00
C 328.01 378.00 328.00 377.00 328.00 377.00
C 327.00 377.00 326.00 377.00 325.00 377.00
C 320.67 377.00 316.33 377.00 312.00 377.00
C 312.25 377.09 312.65 377.95 313.00 378.00 Z"/>
</g>
<g fill="None" fill-opacity="0.0" stroke="#F5E3C4" stroke-opacity="1.00" stroke-width="0.3"><path d="
M 328.00 378.00 
C 355.06 379.43 384.36 379.84 411.00 378.00
C 386.07 377.41 360.52 379.23 336.00 377.00
C 333.33 377.00 330.67 377.00 328.00 377.00
C 328.00 377.00 328.01 378.00 328.00 378.00 Z"/>
</g>
<g fill="None" fill-opacity="0.0" stroke="#898986" stroke-opacity="1.00" stroke-width="0.3"><path d="
M 412.00 378.00 
C 423.67 378.00 435.33 378.00 447.00 378.00
C 447.50 378.00 448.00 378.00 448.00 378.00
C 438.32 375.67 426.50 377.67 416.00 377.00
C 415.00 377.00 414.00 377.00 413.00 377.00
C 413.00 377.00 412.25 376.75 412.00 377.00
C 412.00 377.00 412.25 377.75 412.00 378.00 Z"/>
</g>
<g fill="None" fill-opacity="0.0" stroke="#EFEAE7" stroke-opacity="1.00" stroke-width="0.3"><path d="
M 103.00 415.00 
C 217.67 415.00 332.33 415.00 447.00 415.00
C 447.00 402.67 447.00 390.33 447.00 378.00
C 435.33 378.00 423.67 378.00 412.00 378.00
C 412.00 378.00 411.50 378.00 411.00 378.00
C 384.36 379.84 355.06 379.43 328.00 378.00
C 323.00 378.00 318.00 378.00 313.00 378.00
C 306.49 382.04 294.21 380.11 286.00 379.00 C 275.84 380.31 266.46 378.64 256.00 379.00 C 246.70 376.99 235.70 383.01 228.00 378.00
C 186.33 378.00 144.67 378.00 103.00 378.00
C 103.00 390.33 103.00 402.67 103.00 415.00 Z"/>
</g>
<g fill="None" fill-opacity="0.0" stroke="#BFBEBC" stroke-opacity="1.00" stroke-width="0.3"><path d="
M 447.00 415.00 
C 447.50 415.00 448.00 415.00 448.00 415.00
C 448.00 402.67 448.00 390.33 448.00 378.00
C 448.00 378.00 447.50 378.00 447.00 378.00
C 447.00 390.33 447.00 402.67 447.00 415.00 Z"/>
</g>
<g fill="None" fill-opacity="0.0" stroke="#343636" stroke-opacity="1.00" stroke-width="0.3"><path d="
M 448.00 415.00 
C 448.00 415.50 448.00 416.00 448.00 416.00
C 449.67 404.48 449.66 389.59 448.00 378.00
C 448.00 390.33 448.00 402.67 448.00 415.00 Z"/>
</g>
<g fill="None" fill-opacity="0.0" stroke="#73716F" stroke-opacity="1.00" stroke-width="0.3"><path d="
M 448.00 416.00 
C 448.00 416.00 448.00 415.50 448.00 415.00
C 448.00 415.00 447.50 415.00 447.00 415.00
C 332.33 415.00 217.67 415.00 103.00 415.00
C 217.01 417.33 333.17 415.33 448.00 416.00 Z"/>
</g>
<g fill="None" fill-opacity="0.0" stroke="#40403D" stroke-opacity="1.00" stroke-width="0.3"><path d="
M 193.00 478.00 
C 193.00 465.33 193.00 452.67 193.00 440.00
C 191.33 451.52 191.34 466.41 193.00 478.00 Z"/>
</g>
<g fill="None" fill-opacity="0.0" stroke="#BDBDB8" stroke-opacity="1.00" stroke-width="0.3"><path d="
M 193.00 478.00 
C 193.00 478.00 193.50 478.00 194.00 478.00
C 194.00 465.33 194.00 452.67 194.00 440.00
C 194.00 440.00 193.26 439.75 193.00 440.00
C 193.00 452.67 193.00 465.33 193.00 478.00 Z"/>
</g>
<g fill="None" fill-opacity="0.0" stroke="#EFEAE7" stroke-opacity="1.00" stroke-width="0.3"><path d="
M 194.00 478.00 
C 307.67 478.00 421.33 478.00 535.00 478.00
C 535.00 465.33 535.00 452.67 535.00 440.00
C 421.33 440.00 307.67 440.00 194.00 440.00
C 194.00 452.67 194.00 465.33 194.00 478.00 Z"/>
</g>
<g fill="None" fill-opacity="0.0" stroke="#848482" stroke-opacity="1.00" stroke-width="0.3"><path d="
M 535.00 478.00 
C 536.67 466.48 536.66 451.59 535.00 440.00
C 535.00 452.67 535.00 465.33 535.00 478.00 Z"/>
</g>
<g fill="#0F1314" fill-opacity="1.00" stroke="None">
<path d="
M 0.00 640.00 
L 640.00 640.00
L 640.00 0.00
L 0.00 0.00
L 0.00 640.00
M 417.00 201.00 
C 420.83 197.51 426.45 203.21 423.00 207.00
C 431.52 224.43 446.82 240.62 446.33 262.67 C 450.45 284.82 452.31 313.71 440.00 333.00
C 439.43 333.94 438.85 334.82 439.00 336.00
C 438.96 336.50 439.02 337.50 439.00 338.00
C 436.46 353.86 424.36 363.79 416.00 377.00
C 426.50 377.67 438.32 375.67 448.00 378.00
C 449.66 389.59 449.67 404.48 448.00 416.00
C 333.17 415.33 217.01 417.33 103.00 415.00
C 103.00 402.67 103.00 390.33 103.00 378.00
C 142.76 375.67 184.48 377.67 225.00 377.00
C 200.69 348.83 185.41 309.69 192.92 269.92 C 192.74 242.96 209.64 223.94 220.25 202.25 C 228.77 198.56 235.87 185.95 245.70 181.70 C 256.46 175.78 265.48 166.62 278.00 167.00
C 278.48 167.09 279.50 167.00 280.00 167.00
C 281.05 165.57 283.10 164.77 285.00 165.00
C 331.13 148.76 386.00 164.74 417.00 201.00
M 445.00 224.00 
C 446.73 232.00 437.85 223.64 445.00 224.00
M 535.00 478.00 
C 421.33 478.00 307.67 478.00 194.00 478.00
C 193.50 478.00 193.00 478.00 193.00 478.00
C 191.34 466.41 191.33 451.52 193.00 440.00
C 193.26 439.75 194.00 440.00 194.00 440.00
C 307.67 440.00 421.33 440.00 535.00 440.00
C 536.66 451.59 536.67 466.48 535.00 478.00 Z"/>
</g>
<g fill="#251904" fill-opacity="1.00" stroke="None">
<path d="
M 285.00 165.00 
C 292.03 163.84 298.74 161.39 306.00 161.00
C 307.14 159.13 310.13 160.39 312.00 160.00
C 317.33 160.00 322.67 160.00 328.00 160.00
C 329.88 160.47 332.93 158.94 334.00 161.00
C 340.00 162.00 345.97 163.02 352.00 164.00
C 353.60 164.56 356.03 164.50 357.00 166.00
C 362.79 166.14 367.38 170.33 373.00 171.00
C 374.92 172.44 378.04 172.50 379.00 175.00
C 382.46 175.14 384.75 178.46 388.00 179.00
C 399.82 185.54 409.86 195.72 419.00 206.00
C 419.13 206.80 420.09 207.11 420.00 208.00
C 420.54 209.66 422.56 210.33 423.00 212.00
C 425.17 212.93 426.11 215.05 427.00 217.00
C 430.12 223.31 434.22 229.39 437.00 236.00
C 438.84 236.49 439.18 238.35 439.00 240.00
C 441.61 248.91 445.12 257.58 446.00 267.00
C 447.75 267.83 446.66 270.44 447.00 272.00
C 449.03 273.77 447.53 277.48 448.00 280.00
C 448.00 285.33 448.00 290.67 448.00 296.00
C 447.53 297.88 449.06 300.93 447.00 302.00
C 447.00 302.50 446.97 303.50 447.00 304.00
C 446.61 305.57 447.94 308.22 446.00 309.00
C 446.31 312.92 444.05 316.14 444.00 320.00
C 443.29 322.62 443.87 326.64 441.00 328.00
C 441.62 329.94 439.80 331.13 440.00 333.00
C 452.31 313.71 450.45 284.82 446.33 262.67 C 446.82 240.62 431.52 224.43 423.00 207.00
C 420.72 205.43 418.43 203.33 417.00 201.00
C 386.00 164.74 331.13 148.76 285.00 165.00 Z"/>
</g>
<g fill="#533F0C" fill-opacity="1.00" stroke="None">
<path d="
M 306.00 161.00 
C 308.00 161.00 310.00 161.00 312.00 161.00
C 312.10 160.98 312.00 160.00 312.00 160.00
C 310.13 160.39 307.14 159.13 306.00 161.00 Z"/>
</g>
<g fill="#8D6F2B" fill-opacity="1.00" stroke="None">
<path d="
M 312.00 161.00 
C 317.33 161.00 322.67 161.00 328.00 161.00
C 327.90 160.98 328.00 160.00 328.00 160.00
C 322.67 160.00 317.33 160.00 312.00 160.00
C 312.00 160.00 312.10 160.98 312.00 161.00 Z"/>
</g>
<g fill="#5D4409" fill-opacity="1.00" stroke="None">
<path d="
M 328.00 161.00 
C 330.00 161.00 332.00 161.00 334.00 161.00
C 332.93 158.94 329.88 160.47 328.00 160.00
C 328.00 160.00 327.90 160.98 328.00 161.00 Z"/>
</g>
<g fill="#EEB945" fill-opacity="1.00" stroke="None">
<path d="
M 285.00 165.00 
C 283.95 166.43 281.90 167.23 280.00 167.00
C 279.50 167.00 278.48 167.09 278.00 167.00
C 269.78 171.78 259.98 174.20 252.00 180.00
C 244.23 186.73 234.46 192.22 228.00 201.00
C 224.64 204.68 221.55 208.81 218.00 212.00
C 216.45 213.55 216.17 216.17 214.00 217.00
C 203.30 234.43 195.18 254.04 194.00 275.00
C 194.00 283.67 194.00 292.33 194.00 301.00
C 194.32 316.70 200.57 330.77 206.00 345.00
C 209.94 347.94 210.95 353.25 214.00 357.00
C 214.31 359.73 216.84 361.59 218.00 364.00
C 222.90 367.49 225.91 372.76 230.00 377.00
C 252.00 377.00 274.00 377.00 296.00 377.00
C 296.00 376.00 296.00 375.00 296.00 374.00
C 289.57 372.96 284.13 368.93 278.00 367.00
C 274.69 364.66 270.18 363.64 268.00 360.00
C 265.09 359.25 263.49 356.39 261.00 355.00
C 255.91 351.07 251.55 346.13 248.00 341.00
C 247.76 340.68 248.00 340.00 248.00 340.00
C 245.83 339.07 244.89 336.95 244.00 335.00
C 238.37 324.69 233.52 313.77 232.00 302.00
C 230.13 300.86 231.39 297.87 231.00 296.00
C 229.39 291.74 229.30 284.19 231.00 280.00
C 231.47 278.12 229.94 275.07 232.00 274.00
C 233.35 261.44 239.12 249.82 245.00 239.00
C 245.97 237.15 246.79 234.76 249.00 234.00
C 253.77 227.08 260.11 220.72 267.00 216.00
C 267.32 215.76 268.00 216.00 268.00 216.00
C 270.28 212.41 274.45 210.93 278.00 209.00
C 281.06 207.73 283.71 205.55 287.00 205.00
C 288.11 203.80 290.29 203.34 292.00 203.00
C 295.82 201.39 299.76 200.13 304.00 200.00
C 305.45 198.04 308.80 199.44 311.00 199.00
C 311.50 199.05 312.00 199.00 312.00 199.00
C 319.12 197.00 329.21 197.58 336.00 200.00
C 340.07 199.17 343.11 202.04 347.00 202.00
C 348.81 201.86 351.08 202.44 352.00 204.00
C 353.41 204.15 355.34 204.66 356.00 206.00
C 356.50 205.97 357.00 206.00 357.00 206.00
C 359.55 207.83 363.43 208.07 365.00 211.00
C 365.48 211.10 366.00 211.00 366.00 211.00
C 370.18 212.53 373.24 215.78 377.00 218.00
C 384.22 224.17 391.14 231.11 396.00 239.00
C 402.00 250.27 407.66 262.06 409.00 275.00
C 410.75 275.83 409.66 278.44 410.00 280.00
C 410.00 285.33 410.00 290.67 410.00 296.00
C 410.11 299.44 409.85 303.44 408.00 306.00
C 406.13 319.15 399.50 331.07 392.00 342.00
C 391.19 344.04 388.73 344.97 388.00 347.00
C 384.81 350.98 380.97 354.89 377.00 358.00
C 374.95 359.35 373.04 360.70 371.00 362.00
C 369.54 362.55 368.82 364.40 367.00 364.00
C 365.33 366.86 361.61 367.25 359.00 369.00
C 353.63 370.93 348.28 372.54 343.00 375.00
C 352.14 379.59 365.31 375.72 376.00 377.00 C 387.67 377.00 399.33 377.00 411.00 377.00
C 413.21 374.04 416.02 371.10 419.00 369.00
C 424.29 361.85 428.95 353.95 434.00 347.00
C 433.47 345.72 434.97 345.14 435.00 344.00
C 435.68 341.20 437.07 338.02 439.00 336.00
C 438.85 334.82 439.43 333.94 440.00 333.00
C 439.80 331.13 441.62 329.94 441.00 328.00
C 441.86 325.38 442.23 322.00 444.00 320.00
C 444.05 316.14 446.31 312.92 446.00 309.00
C 446.39 307.43 445.06 304.78 447.00 304.00
C 446.97 303.50 447.00 302.50 447.00 302.00
C 447.00 300.00 447.00 298.00 447.00 296.00
C 447.00 290.67 447.00 285.33 447.00 280.00
C 447.00 277.33 447.00 274.67 447.00 272.00
C 445.25 271.17 446.34 268.56 446.00 267.00
C 445.12 257.58 441.61 248.91 439.00 240.00
C 437.89 239.16 436.97 237.54 437.00 236.00
C 434.22 229.39 430.12 223.31 427.00 217.00
C 424.83 216.07 423.89 213.95 423.00 212.00
C 422.56 210.33 420.54 209.66 420.00 208.00
C 413.34 202.16 406.78 195.63 401.00 189.00
C 396.49 185.98 391.56 183.02 388.00 179.00
C 384.75 178.46 382.46 175.14 379.00 175.00
C 377.08 173.56 373.96 173.50 373.00 171.00
C 367.38 170.33 362.79 166.14 357.00 166.00
C 355.19 166.14 352.92 165.56 352.00 164.00
C 345.97 163.02 340.00 162.00 334.00 161.00
C 332.00 161.00 330.00 161.00 328.00 161.00
C 322.67 161.00 317.33 161.00 312.00 161.00
C 310.00 161.00 308.00 161.00 306.00 161.00
C 298.74 161.39 292.03 163.84 285.00 165.00 Z"/>
</g>
<g fill="#8F722F" fill-opacity="1.00" stroke="None">
<path d="
M 357.00 166.00 
C 356.03 164.50 353.60 164.56 352.00 164.00
C 352.92 165.56 355.19 166.14 357.00 166.00 Z"/>
</g>
<g fill="#7D672A" fill-opacity="1.00" stroke="None">
<path d="
M 280.00 167.00 
C 281.90 167.23 283.95 166.43 285.00 165.00
C 283.10 164.77 281.05 165.57 280.00 167.00 Z"/>
</g>
<g fill="#271A06" fill-opacity="1.00" stroke="None">
<path d="
M 225.00 377.00 
C 226.00 377.00 227.00 377.00 228.00 377.00
C 226.89 374.59 224.04 373.38 223.00 371.00
C 221.53 368.50 219.66 366.34 218.00 364.00
C 216.84 361.59 214.31 359.73 214.00 357.00
C 209.83 354.20 208.32 349.18 206.00 345.00
C 200.57 330.77 194.32 316.70 194.00 301.00
C 192.35 293.41 192.32 282.52 194.00 275.00
C 195.18 254.04 203.30 234.43 214.00 217.00
C 214.97 215.15 215.79 212.76 218.00 212.00
C 219.57 209.02 222.06 206.70 224.00 204.00
C 232.19 194.62 241.37 185.61 252.00 180.00
C 259.98 174.20 269.78 171.78 278.00 167.00
C 265.48 166.62 256.46 175.78 245.70 181.70 C 235.87 185.95 228.77 198.56 220.25 202.25 C 209.64 223.94 192.74 242.96 192.92 269.92 C 185.41 309.69 200.69 348.83 225.00 377.00 Z"/>
</g>
<g fill="#77622D" fill-opacity="1.00" stroke="None">
<path d="
M 379.00 175.00 
C 378.04 172.50 374.92 172.44 373.00 171.00
C 373.96 173.50 377.08 173.56 379.00 175.00 Z"/>
</g>
<g fill="#5F491A" fill-opacity="1.00" stroke="None">
<path d="
M 401.00 189.00 
C 407.49 194.02 412.56 201.03 419.00 206.00
C 409.86 195.72 399.82 185.54 388.00 179.00
C 391.56 183.02 396.49 185.98 401.00 189.00 Z"/>
</g>
<g fill="#725A2A" fill-opacity="1.00" stroke="None">
<path d="
M 224.00 204.00 
C 225.66 203.46 226.33 201.44 228.00 201.00
C 234.46 192.22 244.23 186.73 252.00 180.00
C 241.37 185.61 232.19 194.62 224.00 204.00 Z"/>
</g>
<g fill="#AC934E" fill-opacity="1.00" stroke="None">
<path d="
M 420.00 208.00 
C 420.09 207.11 419.13 206.80 419.00 206.00
C 412.56 201.03 407.49 194.02 401.00 189.00
C 406.78 195.63 413.34 202.16 420.00 208.00 Z"/>
</g>
<g fill="#6A5322" fill-opacity="1.00" stroke="None">
<path d="
M 312.00 199.00 
C 320.22 198.51 328.02 199.52 336.00 200.00
C 329.21 197.58 319.12 197.00 312.00 199.00 Z"/>
</g>
<g fill="#5C4419" fill-opacity="1.00" stroke="None">
<path d="
M 304.00 200.00 
C 306.19 199.48 309.62 201.14 311.00 199.00
C 308.80 199.44 305.45 198.04 304.00 200.00 Z"/>
</g>
<g fill="#251A04" fill-opacity="1.00" stroke="None">
<path d="
M 304.00 200.00 
C 299.76 200.13 295.82 201.39 292.00 203.00
C 290.95 204.43 288.90 205.23 287.00 205.00
C 283.71 205.55 281.06 207.73 278.00 209.00
C 275.40 212.05 271.49 213.99 268.00 216.00
C 268.00 216.00 267.32 215.76 267.00 216.00
C 266.46 217.66 264.44 218.33 264.00 220.00
C 288.88 200.66 324.48 195.53 356.00 206.00
C 355.34 204.66 353.41 204.15 352.00 204.00
C 350.40 203.44 347.97 203.50 347.00 202.00
C 343.11 202.04 340.07 199.17 336.00 200.00
C 328.02 199.52 320.22 198.51 312.00 199.00
C 312.00 199.00 311.50 199.05 311.00 199.00
C 309.62 201.14 306.19 199.48 304.00 200.00 Z"/>
</g>
<g fill="#0E1313" fill-opacity="1.00" stroke="None">
<path d="
M 264.00 220.00 
C 263.20 220.13 262.89 221.09 262.00 221.00
C 248.87 235.66 238.46 252.42 234.67 271.67 C 229.17 293.74 237.50 316.81 245.00 335.00
C 245.68 336.88 247.02 338.32 248.00 340.00
C 248.00 340.00 247.76 340.68 248.00 341.00
C 249.57 341.96 251.25 343.32 252.00 345.00
C 257.52 349.75 262.84 355.28 268.00 360.00
C 271.75 360.98 274.22 364.78 278.00 366.00
C 288.28 371.44 301.35 371.17 310.00 376.00
C 310.74 375.82 311.91 376.05 312.00 377.00
C 316.33 377.00 320.67 377.00 325.00 377.00
C 344.82 372.52 366.23 365.44 382.00 351.00
C 382.35 350.87 382.85 350.34 383.00 350.00
C 397.62 331.63 409.31 310.43 408.00 285.00 C 407.95 260.12 395.08 240.41 380.00 222.00
C 375.60 217.86 370.07 215.09 366.00 211.00
C 366.00 211.00 365.48 211.10 365.00 211.00
C 362.26 209.89 358.76 208.53 357.00 206.00
C 357.00 206.00 356.50 205.97 356.00 206.00
C 324.48 195.53 288.88 200.66 264.00 220.00 Z"/>
</g>
<g fill="#120F1E" fill-opacity="1.00" stroke="None">
<path d="
M 417.00 201.00 
C 418.43 203.33 420.72 205.43 423.00 207.00
C 426.45 203.21 420.83 197.51 417.00 201.00 Z"/>
</g>
<g fill="#AA8F52" fill-opacity="1.00" stroke="None">
<path d="
M 224.00 204.00 
C 222.06 206.70 219.57 209.02 218.00 212.00
C 221.55 208.81 224.64 204.68 228.00 201.00
C 226.33 201.44 225.66 203.46 224.00 204.00 Z"/>
</g>
<g fill="#A6834B" fill-opacity="1.00" stroke="None">
<path d="
M 352.00 204.00 
C 351.08 202.44 348.81 201.86 347.00 202.00
C 347.97 203.50 350.40 203.44 352.00 204.00 Z"/>
</g>
<g fill="#56410F" fill-opacity="1.00" stroke="None">
<path d="
M 287.00 205.00 
C 288.90 205.23 290.95 204.43 292.00 203.00
C 290.29 203.34 288.11 203.80 287.00 205.00 Z"/>
</g>
<g fill="#4A370C" fill-opacity="1.00" stroke="None">
<path d="
M 365.00 211.00 
C 363.43 208.07 359.55 207.83 357.00 206.00
C 358.76 208.53 362.26 209.89 365.00 211.00 Z"/>
</g>
<g fill="#5B4214" fill-opacity="1.00" stroke="None">
<path d="
M 268.00 216.00 
C 271.49 213.99 275.40 212.05 278.00 209.00
C 274.45 210.93 270.28 212.41 268.00 216.00 Z"/>
</g>
<g fill="#513C13" fill-opacity="1.00" stroke="None">
<path d="
M 380.00 222.00 
C 379.46 220.34 377.44 219.67 377.00 218.00
C 373.24 215.78 370.18 212.53 366.00 211.00
C 370.07 215.09 375.60 217.86 380.00 222.00 Z"/>
</g>
<g fill="#634F1C" fill-opacity="1.00" stroke="None">
<path d="
M 214.00 217.00 
C 216.17 216.17 216.45 213.55 218.00 212.00
C 215.79 212.76 214.97 215.15 214.00 217.00 Z"/>
</g>
<g fill="#63471E" fill-opacity="1.00" stroke="None">
<path d="
M 427.00 217.00 
C 426.11 215.05 425.17 212.93 423.00 212.00
C 423.89 213.95 424.83 216.07 427.00 217.00 Z"/>
</g>
<g fill="#624C19" fill-opacity="1.00" stroke="None">
<path d="
M 249.00 234.00 
C 253.78 230.31 256.70 224.30 262.00 221.00
C 262.89 221.09 263.20 220.13 264.00 220.00
C 264.44 218.33 266.46 217.66 267.00 216.00
C 260.11 220.72 253.77 227.08 249.00 234.00 Z"/>
</g>
<g fill="#81662F" fill-opacity="1.00" stroke="None">
<path d="
M 380.00 222.00 
C 386.86 226.37 390.01 234.14 396.00 239.00
C 391.14 231.11 384.22 224.17 377.00 218.00
C 377.44 219.67 379.46 220.34 380.00 222.00 Z"/>
</g>
<g fill="#291C05" fill-opacity="1.00" stroke="None">
<path d="
M 249.00 234.00 
C 247.45 235.55 247.17 238.18 245.00 239.00
C 239.12 249.82 233.35 261.44 232.00 274.00
C 231.41 276.84 233.22 280.98 231.00 283.00
C 231.00 286.33 231.00 289.67 231.00 293.00
C 233.08 295.10 231.50 299.15 232.00 302.00
C 233.52 313.77 238.37 324.69 244.00 335.00
C 244.22 335.25 245.00 335.00 245.00 335.00
C 237.50 316.81 229.17 293.74 234.67 271.67 C 238.46 252.42 248.87 235.66 262.00 221.00
C 256.70 224.30 253.78 230.31 249.00 234.00 Z"/>
</g>
<g fill="#281B06" fill-opacity="1.00" stroke="None">
<path d="
M 383.00 350.00 
C 386.45 347.95 388.58 344.00 392.00 342.00
C 399.50 331.07 406.13 319.15 408.00 306.00
C 407.79 302.54 409.70 299.60 409.00 296.00
C 409.00 290.67 409.00 285.33 409.00 280.00
C 409.00 278.33 409.00 276.67 409.00 275.00
C 407.66 262.06 402.00 250.27 396.00 239.00
C 390.01 234.14 386.86 226.37 380.00 222.00
C 395.08 240.41 407.95 260.12 408.00 285.00 C 409.31 310.43 397.62 331.63 383.00 350.00 Z"/>
</g>
<g fill="#110F23" fill-opacity="1.00" stroke="None">
<path d="
M 445.00 224.00 
C 437.85 223.64 446.73 232.00 445.00 224.00 Z"/>
</g>
<g fill="#957B40" fill-opacity="1.00" stroke="None">
<path d="
M 245.00 239.00 
C 247.17 238.18 247.45 235.55 249.00 234.00
C 246.79 234.76 245.97 237.15 245.00 239.00 Z"/>
</g>
<g fill="#584511" fill-opacity="1.00" stroke="None">
<path d="
M 439.00 240.00 
C 439.18 238.35 438.84 236.49 437.00 236.00
C 436.97 237.54 437.89 239.16 439.00 240.00 Z"/>
</g>
<g fill="#9B7D4E" fill-opacity="1.00" stroke="None">
<path d="
M 447.00 272.00 
C 446.66 270.44 447.75 267.83 446.00 267.00
C 446.34 268.56 445.25 271.17 447.00 272.00 Z"/>
</g>
<g fill="#725513" fill-opacity="1.00" stroke="None">
<path d="
M 447.00 280.00 
C 447.00 279.96 448.00 280.00 448.00 280.00
C 447.53 277.48 449.03 273.77 447.00 272.00
C 447.00 274.67 447.00 277.33 447.00 280.00 Z"/>
</g>
<g fill="#6E571B" fill-opacity="1.00" stroke="None">
<path d="
M 231.00 280.00 
C 231.00 281.00 231.00 282.00 231.00 283.00
C 233.22 280.98 231.41 276.84 232.00 274.00
C 229.94 275.07 231.47 278.12 231.00 280.00 Z"/>
</g>
<g fill="#A8874A" fill-opacity="1.00" stroke="None">
<path d="
M 194.00 301.00 
C 194.00 292.33 194.00 283.67 194.00 275.00
C 192.32 282.52 192.35 293.41 194.00 301.00 Z"/>
</g>
<g fill="#917239" fill-opacity="1.00" stroke="None">
<path d="
M 409.00 280.00 
C 409.05 280.15 410.00 280.00 410.00 280.00
C 409.66 278.44 410.75 275.83 409.00 275.00
C 409.00 276.67 409.00 278.33 409.00 280.00 Z"/>
</g>
<g fill="#B79843" fill-opacity="1.00" stroke="None">
<path d="
M 231.00 296.00 
C 231.00 295.00 231.00 294.00 231.00 293.00
C 231.00 289.67 231.00 286.33 231.00 283.00
C 231.00 282.00 231.00 281.00 231.00 280.00
C 229.30 284.19 229.39 291.74 231.00 296.00 Z"/>
</g>
<g fill="#584113" fill-opacity="1.00" stroke="None">
<path d="
M 409.00 296.00 
C 409.00 296.02 410.00 296.00 410.00 296.00
C 410.00 290.67 410.00 285.33 410.00 280.00
C 410.00 280.00 409.05 280.15 409.00 280.00
C 409.00 285.33 409.00 290.67 409.00 296.00 Z"/>
</g>
<g fill="#A68837" fill-opacity="1.00" stroke="None">
<path d="
M 447.00 296.00 
C 447.02 295.90 448.00 296.00 448.00 296.00
C 448.00 290.67 448.00 285.33 448.00 280.00
C 448.00 280.00 447.00 279.96 447.00 280.00
C 447.00 285.33 447.00 290.67 447.00 296.00 Z"/>
</g>
<g fill="#795C1B" fill-opacity="1.00" stroke="None">
<path d="
M 231.00 296.00 
C 231.39 297.87 230.13 300.86 232.00 302.00
C 231.50 299.15 233.08 295.10 231.00 293.00
C 231.00 294.00 231.00 295.00 231.00 296.00 Z"/>
</g>
<g fill="#8D6F36" fill-opacity="1.00" stroke="None">
<path d="
M 408.00 306.00 
C 409.85 303.44 410.11 299.44 410.00 296.00
C 410.00 296.00 409.00 296.02 409.00 296.00
C 409.70 299.60 407.79 302.54 408.00 306.00 Z"/>
</g>
<g fill="#805D1C" fill-opacity="1.00" stroke="None">
<path d="
M 447.00 302.00 
C 449.06 300.93 447.53 297.88 448.00 296.00
C 448.00 296.00 447.02 295.90 447.00 296.00
C 447.00 298.00 447.00 300.00 447.00 302.00 Z"/>
</g>
<g fill="#9B7844" fill-opacity="1.00" stroke="None">
<path d="
M 446.00 309.00 
C 447.94 308.22 446.61 305.57 447.00 304.00
C 445.06 304.78 446.39 307.43 446.00 309.00 Z"/>
</g>
<g fill="#826A2A" fill-opacity="1.00" stroke="None">
<path d="
M 441.00 328.00 
C 443.87 326.64 443.29 322.62 444.00 320.00
C 442.23 322.00 441.86 325.38 441.00 328.00 Z"/>
</g>
<g fill="#876B3A" fill-opacity="1.00" stroke="None">
<path d="
M 248.00 340.00 
C 247.02 338.32 245.68 336.88 245.00 335.00
C 245.00 335.00 244.22 335.25 244.00 335.00
C 244.89 336.95 245.83 339.07 248.00 340.00 Z"/>
</g>
<g fill="#63531D" fill-opacity="1.00" stroke="None">
<path d="
M 435.00 344.00 
C 437.02 342.66 436.95 339.28 439.00 338.00
C 439.02 337.50 438.96 336.50 439.00 336.00
C 437.07 338.02 435.68 341.20 435.00 344.00 Z"/>
</g>
<g fill="#1B1003" fill-opacity="1.00" stroke="None">
<path d="
M 435.00 344.00 
C 434.97 345.14 433.47 345.72 434.00 347.00
C 428.86 358.13 421.37 367.84 413.00 377.00
C 414.00 377.00 415.00 377.00 416.00 377.00
C 424.36 363.79 436.46 353.86 439.00 338.00
C 436.95 339.28 437.02 342.66 435.00 344.00 Z"/>
</g>
<g fill="#826A2D" fill-opacity="1.00" stroke="None">
<path d="
M 261.00 355.00 
C 258.62 351.20 254.32 348.76 252.00 345.00
C 251.25 343.32 249.57 341.96 248.00 341.00
C 251.55 346.13 255.91 351.07 261.00 355.00 Z"/>
</g>
<g fill="#594111" fill-opacity="1.00" stroke="None">
<path d="
M 383.00 350.00 
C 382.85 350.34 382.35 350.87 382.00 351.00
C 379.36 355.78 373.84 357.65 371.00 362.00
C 373.04 360.70 374.95 359.35 377.00 358.00
C 380.19 354.02 384.03 350.11 388.00 347.00
C 388.73 344.97 391.19 344.04 392.00 342.00
C 388.58 344.00 386.45 347.95 383.00 350.00 Z"/>
</g>
<g fill="#937A39" fill-opacity="1.00" stroke="None">
<path d="
M 214.00 357.00 
C 210.95 353.25 209.94 347.94 206.00 345.00
C 208.32 349.18 209.83 354.20 214.00 357.00 Z"/>
</g>
<g fill="#402E06" fill-opacity="1.00" stroke="None">
<path d="
M 261.00 355.00 
C 263.49 356.39 265.09 359.25 268.00 360.00
C 262.84 355.28 257.52 349.75 252.00 345.00
C 254.32 348.76 258.62 351.20 261.00 355.00 Z"/>
</g>
<g fill="#977B35" fill-opacity="1.00" stroke="None">
<path d="
M 377.00 358.00 
C 380.97 354.89 384.81 350.98 388.00 347.00
C 384.03 350.11 380.19 354.02 377.00 358.00 Z"/>
</g>
<g fill="#5A4214" fill-opacity="1.00" stroke="None">
<path d="
M 419.00 369.00 
C 417.27 372.11 413.67 373.92 412.00 377.00
C 412.25 376.75 413.00 377.00 413.00 377.00
C 421.37 367.84 428.86 358.13 434.00 347.00
C 428.95 353.95 424.29 361.85 419.00 369.00 Z"/>
</g>
<g fill="#221905" fill-opacity="1.00" stroke="None">
<path d="
M 325.00 377.00 
C 326.00 377.00 327.00 377.00 328.00 377.00
C 329.77 374.97 333.48 376.47 336.00 376.00
C 338.49 376.29 340.39 374.36 343.00 375.00
C 348.28 372.54 353.63 370.93 359.00 369.00
C 360.45 365.62 364.19 365.40 367.00 364.00
C 368.82 364.40 369.54 362.55 371.00 362.00
C 373.84 357.65 379.36 355.78 382.00 351.00
C 366.23 365.44 344.82 372.52 325.00 377.00 Z"/>
</g>
<g fill="#655320" fill-opacity="1.00" stroke="None">
<path d="
M 278.00 367.00 
C 277.84 366.94 278.00 366.00 278.00 366.00
C 274.22 364.78 271.75 360.98 268.00 360.00
C 270.18 363.64 274.69 364.66 278.00 367.00 Z"/>
</g>
<g fill="#AB8E56" fill-opacity="1.00" stroke="None">
<path d="
M 223.00 371.00 
C 224.61 372.46 229.32 375.24 228.00 377.00
C 227.77 377.36 228.00 378.00 228.00 378.00
C 228.25 378.25 229.00 378.00 229.00 378.00
C 229.26 377.88 229.65 377.05 230.00 377.00
C 225.91 372.76 222.90 367.49 218.00 364.00
C 219.66 366.34 221.53 368.50 223.00 371.00 Z"/>
</g>
<g fill="#674E22" fill-opacity="1.00" stroke="None">
<path d="
M 359.00 369.00 
C 361.61 367.25 365.33 366.86 367.00 364.00
C 364.19 365.40 360.45 365.62 359.00 369.00 Z"/>
</g>
<g fill="#291D05" fill-opacity="1.00" stroke="None">
<path d="
M 278.00 367.00 
C 284.13 368.93 289.57 372.96 296.00 374.00
C 299.33 374.60 302.31 376.63 306.00 376.00
C 307.33 376.00 308.67 376.00 310.00 376.00
C 301.35 371.17 288.28 371.44 278.00 366.00
C 278.00 366.00 277.84 366.94 278.00 367.00 Z"/>
</g>
<g fill="#9D843B" fill-opacity="1.00" stroke="None">
<path d="
M 411.00 377.00 
C 411.50 377.00 412.00 377.00 412.00 377.00
C 413.67 373.92 417.27 372.11 419.00 369.00
C 416.02 371.10 413.21 374.04 411.00 377.00 Z"/>
</g>
<g fill="#573F0E" fill-opacity="1.00" stroke="None">
<path d="
M 228.00 377.00 
C 229.32 375.24 224.61 372.46 223.00 371.00
C 224.04 373.38 226.89 374.59 228.00 377.00 Z"/>
</g>
<g fill="#E8CD91" fill-opacity="1.00" stroke="None">
<path d="
M 230.00 377.00 
C 229.65 377.05 229.26 377.88 229.00 378.00
C 254.59 377.35 280.83 379.31 306.00 377.00
C 306.21 376.89 306.00 376.00 306.00 376.00
C 302.31 376.63 299.33 374.60 296.00 374.00
C 296.00 375.00 296.00 376.00 296.00 377.00
C 274.00 377.00 252.00 377.00 230.00 377.00 Z"/>
</g>
<g fill="#EBCE92" fill-opacity="1.00" stroke="None">
<path d="
M 336.00 376.00 
C 335.87 376.04 336.00 377.00 336.00 377.00
C 360.52 379.23 386.07 377.41 411.00 378.00
C 411.50 378.00 412.00 378.00 412.00 378.00
C 412.25 377.75 412.00 377.00 412.00 377.00
C 412.00 377.00 411.50 377.00 411.00 377.00
C 399.33 377.00 387.67 377.00 376.00 377.00 C 365.31 375.72 352.14 379.59 343.00 375.00
C 340.39 374.36 338.49 376.29 336.00 376.00 Z"/>
</g>
<g fill="#564D3A" fill-opacity="1.00" stroke="None">
<path d="
M 306.00 377.00 
C 308.00 377.00 310.00 377.00 312.00 377.00
C 311.91 376.05 310.74 375.82 310.00 376.00
C 308.67 376.00 307.33 376.00 306.00 376.00
C 306.00 376.00 306.21 376.89 306.00 377.00 Z"/>
</g>
<g fill="#595241" fill-opacity="1.00" stroke="None">
<path d="
M 328.00 377.00 
C 330.67 377.00 333.33 377.00 336.00 377.00
C 336.00 377.00 335.87 376.04 336.00 376.00
C 333.48 376.47 329.77 374.97 328.00 377.00 Z"/>
</g>
<g fill="#888986" fill-opacity="1.00" stroke="None">
<path d="
M 103.00 378.00 
C 144.67 378.00 186.33 378.00 228.00 378.00
C 228.00 378.00 227.77 377.36 228.00 377.00
C 227.00 377.00 226.00 377.00 225.00 377.00
C 184.48 377.67 142.76 375.67 103.00 378.00 Z"/>
</g>
<g fill="#F3E8CB" fill-opacity="1.00" stroke="None">
<path d="
M 229.00 378.00 
C 229.00 378.00 228.25 378.25 228.00 378.00
C 235.70 383.01 246.70 376.99 256.00 379.00 C 266.46 378.64 275.84 380.31 286.00 379.00 C 294.21 380.11 306.49 382.04 313.00 378.00
C 312.65 377.95 312.25 377.09 312.00 377.00
C 310.00 377.00 308.00 377.00 306.00 377.00
C 280.83 379.31 254.59 377.35 229.00 378.00 Z"/>
</g>
<g fill="#929389" fill-opacity="1.00" stroke="None">
<path d="
M 313.00 378.00 
C 318.00 378.00 323.00 378.00 328.00 378.00
C 328.01 378.00 328.00 377.00 328.00 377.00
C 327.00 377.00 326.00 377.00 325.00 377.00
C 320.67 377.00 316.33 377.00 312.00 377.00
C 312.25 377.09 312.65 377.95 313.00 378.00 Z"/>
</g>
<g fill="#F5E3C4" fill-opacity="1.00" stroke="None">
<path d="
M 328.00 378.00 
C 355.06 379.43 384.36 379.84 411.00 378.00
C 386.07 377.41 360.52 379.23 336.00 377.00
C 333.33 377.00 330.67 377.00 328.00 377.00
C 328.00 377.00 328.01 378.00 328.00 378.00 Z"/>
</g>
<g fill="#898986" fill-opacity="1.00" stroke="None">
<path d="
M 412.00 378.00 
C 423.67 378.00 435.33 378.00 447.00 378.00
C 447.50 378.00 448.00 378.00 448.00 378.00
C 438.32 375.67 426.50 377.67 416.00 377.00
C 415.00 377.00 414.00 377.00 413.00 377.00
C 413.00 377.00 412.25 376.75 412.00 377.00
C 412.00 377.00 412.25 377.75 412.00 378.00 Z"/>
</g>
<g fill="#EFEAE7" fill-opacity="1.00" stroke="None">
<path d="
M 103.00 415.00 
C 217.67 415.00 332.33 415.00 447.00 415.00
C 447.00 402.67 447.00 390.33 447.00 378.00
C 435.33 378.00 423.67 378.00 412.00 378.00
C 412.00 378.00 411.50 378.00 411.00 378.00
C 384.36 379.84 355.06 379.43 328.00 378.00
C 323.00 378.00 318.00 378.00 313.00 378.00
C 306.49 382.04 294.21 380.11 286.00 379.00 C 275.84 380.31 266.46 378.64 256.00 379.00 C 246.70 376.99 235.70 383.01 228.00 378.00
C 186.33 378.00 144.67 378.00 103.00 378.00
C 103.00 390.33 103.00 402.67 103.00 415.00 Z"/>
</g>
<g fill="#BFBEBC" fill-opacity="1.00" stroke="None">
<path d="
M 447.00 415.00 
C 447.50 415.00 448.00 415.00 448.00 415.00
C 448.00 402.67 448.00 390.33 448.00 378.00
C 448.00 378.00 447.50 378.00 447.00 378.00
C 447.00 390.33 447.00 402.67 447.00 415.00 Z"/>
</g>
<g fill="#343636" fill-opacity="1.00" stroke="None">
<path d="
M 448.00 415.00 
C 448.00 415.50 448.00 416.00 448.00 416.00
C 449.67 404.48 449.66 389.59 448.00 378.00
C 448.00 390.33 448.00 402.67 448.00 415.00 Z"/>
</g>
<g fill="#73716F" fill-opacity="1.00" stroke="None">
<path d="
M 448.00 416.00 
C 448.00 416.00 448.00 415.50 448.00 415.00
C 448.00 415.00 447.50 415.00 447.00 415.00
C 332.33 415.00 217.67 415.00 103.00 415.00
C 217.01 417.33 333.17 415.33 448.00 416.00 Z"/>
</g>
<g fill="#40403D" fill-opacity="1.00" stroke="None">
<path d="
M 193.00 478.00 
C 193.00 465.33 193.00 452.67 193.00 440.00
C 191.33 451.52 191.34 466.41 193.00 478.00 Z"/>
</g>
<g fill="#BDBDB8" fill-opacity="1.00" stroke="None">
<path d="
M 193.00 478.00 
C 193.00 478.00 193.50 478.00 194.00 478.00
C 194.00 465.33 194.00 452.67 194.00 440.00
C 194.00 440.00 193.26 439.75 193.00 440.00
C 193.00 452.67 193.00 465.33 193.00 478.00 Z"/>
</g>
<g fill="#EFEAE7" fill-opacity="1.00" stroke="None">
<path d="
M 194.00 478.00 
C 307.67 478.00 421.33 478.00 535.00 478.00
C 535.00 465.33 535.00 452.67 535.00 440.00
C 421.33 440.00 307.67 440.00 194.00 440.00
C 194.00 452.67 194.00 465.33 194.00 478.00 Z"/>
</g>
<g fill="#848482" fill-opacity="1.00" stroke="None">
<path d="
M 535.00 478.00 
C 536.67 466.48 536.66 451.59 535.00 440.00
C 535.00 452.67 535.00 465.33 535.00 478.00 Z"/>
</g>
</svg>